<?xml version="1.0" encoding="utf-8"?>
<!-- Generator: Adobe Illustrator 16.0.0, SVG Export Plug-In . SVG Version: 6.00 Build 0)  -->
<!DOCTYPE svg PUBLIC "-//W3C//DTD SVG 1.1//EN" "http://www.w3.org/Graphics/SVG/1.1/DTD/svg11.dtd">
<svg version="1.1" id="Layer_1" xmlns="http://www.w3.org/2000/svg" x="0px" y="0px"
     width="750px" height="471px" viewBox="23.313 189.619 465.362 132.714"
     enable-background="new 23.313 189.619 465.362 132.714" xml:space="preserve">
<g id="_551849544">
</g>
    <g id="_551849856">
</g>
    <g id="_551850096">
</g>
    <g id="_551850144">
</g>
    <g id="_551850000">
</g>
    <g id="_551850360">
</g>
    <g id="_551851440">
</g>
    <g id="_551851224">
</g>
    <g id="_551850768">
</g>
    <g id="_551850816">
</g>
    <g id="_551851944">
</g>
    <g id="_551852040">
</g>
    <g id="_551852256">
</g>
    <g id="_551851800">
</g>
    <g id="_551852544">
</g>
    <g id="_551852832">
</g>
    <g id="_551852904">
</g>
    <g id="_551853432">
</g>
    <g id="_551853360">
</g>
    <g id="_551853456">
</g>
    <g id="_551853408">
</g>
    <g id="_551854272">
</g>
    <g id="_551853840">
</g>
    <g id="_551854176">
</g>
    <g id="_551854584">
</g>
    <g id="_551855064">
</g>
    <g id="_551854680">
</g>
    <g id="_551855664">
</g>
    <g id="_551855400">
</g>
    <g id="_551855712">
</g>
    <g>
	<path fill="#FFFFFF" d="M373.692,249.225c3.678,0,6.678,2.903,6.678,6.582c0,2.322-1.258,4.355-3.097,5.517l2.032,9.292h-11.227
		l2.032-9.292c-1.839-1.161-3.098-3.194-3.098-5.517C367.014,252.128,370.015,249.225,373.692,249.225z"/>
        <path fill="#FFFFFF" d="M302.457,285.229c5.227-13.841,10.938-28.649,16.164-42.489l0,0l0,0l0,0l0,0l0,0l0,0
		c5.227,13.84,10.937,28.648,16.163,42.489l0.387,0.968c0.581,1.452,1.646,1.742,2.71,1.742h3.194c1.646,0,2.613-1.161,2.032-2.613
		l-18.195-47.715c-0.484-1.065-1.259-1.936-2.227-2.517c-0.58-0.291-1.258-0.581-1.936-0.581h-2.129l0,0l0,0h-2.13
		c-0.677,0-1.354,0.193-1.936,0.581c-0.968,0.581-1.742,1.452-2.226,2.517l-18.1,47.715c-0.58,1.452,0.387,2.613,2.033,2.613h3.193
		c1.064,0,2.033-0.387,2.71-1.742L302.457,285.229z"/>
        <path fill="#FFFFFF" d="M412.407,283.197v0.871v0.968c0,1.646,1.354,3,3,3h28.843c1.645,0,3-1.354,3-3v-1.839c0-1.646-1.355-3-3-3
		h-23.906v-42.586c0-1.646-1.355-3-3.001-3h-1.839c-1.646,0-3,1.355-3,3v45.586H412.407z"/>
        <path fill="#FFFFFF" d="M351.915,233.255h10.646h3.001c1.451,0,2.71,1.258,2.71,2.71v1.646c0,1.452-1.259,2.71-2.71,2.71h-3.001
		h-8.808v25.455c2.71,9.969,12.002,17.131,19.938,19.938c7.937-2.709,17.228-9.969,19.938-19.938v-25.455h-9.388h-2.42
		c-1.452,0-2.71-1.258-2.71-2.71v-1.646c0-1.452,1.258-2.71,2.71-2.71h2.42h8.033h6.001c1.451,0,2.71,1.258,2.71,2.71v1.064v0.581
		v28.842c-3.775,13.55-16.551,23.422-27.391,27.197c-10.84-3.775-23.616-13.551-27.391-27.197v-28.842v-0.968v-0.581
		c0-1.452,1.258-2.71,2.71-2.71h3V233.255z"/>
        <path fill="#FFFFFF" d="M471.543,281.262v-3.678V242.45h6.679h1.258h6.194c1.646,0,3.001-1.355,3.001-3v-1.839
		c0-1.646-1.355-3-3.001-3h-36.101c-1.646,0-3.001,1.355-3.001,3v1.839c0,1.645,1.355,3,3.001,3h3.678h3.678h6.678v35.036v3.678
		v3.678c0,1.646,1.355,3.001,3.001,3.001h1.839c1.646,0,3-1.354,3-3.001v-3.58H471.543z"/>
        <path fill="#FFFFFF" d="M258.71,237.32c5.227,13.84,10.937,28.648,16.163,42.489l0,0l0,0l0,0l0,0l0,0l0,0
		c5.227-13.841,10.938-28.649,16.164-42.489l0.387-0.968c0.58-1.452,1.646-1.742,2.71-1.742h3.194c1.645,0,2.613,1.161,2.032,2.613
		l-18.099,47.716c-0.484,1.064-1.259,1.936-2.227,2.516c-0.58,0.291-1.258,0.581-1.936,0.581h-2.227l0,0l0,0h-2.129
		c-0.774,0-1.355-0.193-1.936-0.581c-0.969-0.58-1.742-1.451-2.227-2.516l-18.099-47.716c-0.581-1.452,0.387-2.613,2.032-2.613
		h3.194c1.065,0,2.033,0.387,2.71,1.742L258.71,237.32z"/>
        <path opacity="0.4" fill="#FFFFFF" enable-background="new    " d="M256.193,292.682l-33.294-88.462
		c-2.807-6.969-8.324-7.937-15.389-6.678l-4.937,1.162l-0.677-1.936c-2.807-6.968-8.324-7.937-15.389-6.678L34.069,225.512
		c-5.033,1.162-8.13,3.775-9.679,6.775c-1.355,2.807-1.646,5.807,0.387,10.065l30.584,63.105c3.097,6.388,8.517,9.872,15.679,9.388
		l6.098-0.387c3.194,5.323,8.324,8.227,14.809,7.84l152.148-9.969C255.516,311.459,260.355,303.716,256.193,292.682z
		 M223.286,304.877l-146.051,9.582c-0.29-0.484-0.581-1.064-0.871-1.646L45.78,249.709c-2.032-4.259-1.742-7.259-0.387-10.066
		c1.549-3.097,4.549-5.614,9.679-6.775l147.6-34.166l2.71,7.162v0.097c0.097,0,0.097,0,0.193,0c7.065,0,12.776,5.227,12.776,11.711
		c0,3.774-2.033,7.162-5.033,9.388l3.097,8.13l18.873,50.039C239.353,296.359,234.514,304.104,223.286,304.877z"/>
        <path fill="#009844" d="M215.543,232.868l-2.226-5.807"/>
        <path fill="none" d="M196.477,209.349c-0.194,0.097-0.291,0.29-0.484,0.484l0,0C196.186,209.639,196.283,209.542,196.477,209.349
		L196.477,209.349z"/>
        <path fill="none" d="M195.702,210.22c-0.097,0.193-0.291,0.29-0.387,0.484l0,0C195.412,210.51,195.508,210.414,195.702,210.22
		L195.702,210.22z"/>
        <path fill="none" d="M197.348,208.671c-0.097,0.097-0.194,0.097-0.194,0.194C197.25,208.768,197.348,208.671,197.348,208.671
		L197.348,208.671z"/>
        <path fill="none" d="M200.542,206.833c-0.194,0.097-0.387,0.194-0.581,0.291l0,0C200.154,207.026,200.348,206.929,200.542,206.833
		L200.542,206.833z"/>
        <path fill="none" d="M194.25,212.059c-0.097,0.097-0.097,0.193-0.194,0.291C194.153,212.252,194.25,212.156,194.25,212.059
		L194.25,212.059z"/>
        <path fill="none" d="M201.703,206.445c-0.193,0.097-0.387,0.097-0.581,0.194l0,0C201.316,206.639,201.509,206.542,201.703,206.445
		L201.703,206.445z"/>
        <path fill="none" d="M193.379,214.188v0.097C193.282,214.285,193.282,214.188,193.379,214.188L193.379,214.188z"/>
        <path fill="none" d="M207.994,229.19L207.994,229.19c-0.194,0-0.387,0-0.484,0.097C207.607,229.287,207.8,229.19,207.994,229.19z"
        />
        <path fill="none" d="M210.607,228.513c0.387-0.097,0.677-0.291,1.064-0.484l0,0C211.285,228.222,210.994,228.319,210.607,228.513
		L210.607,228.513z"/>
        <path fill="none" d="M211.962,227.835c0.193-0.097,0.29-0.193,0.484-0.29C212.252,227.738,212.059,227.835,211.962,227.835
		L211.962,227.835z"/>
        <path fill="none" d="M193.767,213.124c0,0.097-0.097,0.194-0.097,0.194C193.669,213.221,193.767,213.221,193.767,213.124
		L193.767,213.124z"/>
        <path fill="none" d="M204.219,205.961c-0.097,0-0.193,0-0.291,0C204.026,205.961,204.123,205.961,204.219,205.961L204.219,205.961z
		"/>
        <path fill="none" d="M192.992,215.35c0,0.097,0,0.194-0.097,0.387C192.992,215.543,192.992,215.446,192.992,215.35L192.992,215.35z
		"/>
        <path fill="none" d="M206.833,229.384L206.833,229.384c-0.387,0-0.774,0.097-1.162,0.097
		C205.961,229.384,206.445,229.384,206.833,229.384z"/>
        <path fill="none" d="M202.284,206.349L202.284,206.349c0.193-0.097,0.387-0.097,0.581-0.097
		C202.671,206.252,202.477,206.252,202.284,206.349z"/>
        <path fill="none" d="M147.599,237.901c-18.68,11.421-18.68,35.714,0,47.039c12.97,7.936,29.133,6,40.554,1.839v-14.034
		c-9.582,4.452-20.519,4.742-26.713,0.678c-7.646-5.033-7.646-19.067,0-24.003c6.194-4.065,17.131-3.774,26.713,0.678v-14.034
		C176.732,231.9,160.569,230.062,147.599,237.901z"/>
        <path fill="none" d="M104.045,232.868H75.3v57.104h21.583v-17.325h7.162c14.518,0,26.423-9.001,26.423-19.938
		C130.468,241.869,118.563,232.868,104.045,232.868z M101.723,259.484h-4.839v-13.26h4.839c3.871,0,7.162,3,7.162,6.678
		C108.885,256.484,105.691,259.484,101.723,259.484z"/>
        <path fill="#FFFFFF" d="M212.64,227.448c-0.097,0.097-0.193,0.097-0.291,0.193c0.194-0.097,0.387-0.193,0.581-0.387l0,0
		C212.833,227.351,212.736,227.448,212.64,227.448z"/>
        <path fill="#FFFFFF" d="M209.542,228.803c-0.097,0-0.291,0.097-0.387,0.097c-0.29,0.097-0.484,0.097-0.774,0.193
		c-0.097,0-0.29,0.097-0.387,0.097c0.968-0.194,1.839-0.387,2.613-0.774c-0.097,0-0.194,0.097-0.291,0.097
		C210.123,228.706,209.833,228.803,209.542,228.803z"/>
        <path fill="#FFFFFF" d="M204.8,205.961L204.8,205.961c-0.193,0-0.387,0-0.581,0C204.413,205.961,204.606,205.961,204.8,205.961z"/>
        <path fill="#FFFFFF" d="M195.702,210.22c0.097-0.097,0.291-0.291,0.387-0.387C195.896,209.93,195.799,210.123,195.702,210.22z"/>
        <path fill="#FFFFFF" d="M211.962,227.835c-0.097,0-0.194,0.097-0.291,0.097C211.769,227.932,211.865,227.932,211.962,227.835z"/>
        <path fill="#FFFFFF" d="M206.833,229.384c0.193,0,0.484-0.097,0.678-0.097c-0.097,0-0.194,0-0.291,0
		C207.026,229.287,206.929,229.384,206.833,229.384z"/>
        <path fill="#FFFFFF" d="M194.928,211.091c0.097-0.097,0.194-0.291,0.291-0.387c-0.387,0.484-0.678,0.871-0.968,1.355
		c0.097-0.194,0.193-0.291,0.29-0.484C194.734,211.479,194.831,211.285,194.928,211.091z"/>
        <path fill="#FFFFFF" d="M194.153,212.35c-0.097,0.193-0.29,0.484-0.387,0.677c0.097-0.193,0.193-0.291,0.193-0.484
		C194.057,212.543,194.057,212.446,194.153,212.35z"/>
        <path fill="#FFFFFF" d="M203.542,206.058c0.097,0,0.29,0,0.387-0.097c-0.387,0-0.677,0.097-1.064,0.194l0,0
		C203.155,206.155,203.348,206.058,203.542,206.058z"/>
        <path fill="#FFFFFF" d="M198.412,207.994c0.193-0.097,0.291-0.194,0.484-0.291c0.194-0.097,0.387-0.193,0.581-0.291
		c0.194-0.097,0.387-0.193,0.484-0.193c-0.871,0.387-1.742,0.871-2.517,1.548c0.193-0.097,0.29-0.193,0.484-0.29
		C198.025,208.188,198.219,208.091,198.412,207.994z"/>
        <path fill="#FFFFFF" d="M201.703,206.445c0.194-0.097,0.387-0.097,0.581-0.097C202.09,206.349,201.896,206.445,201.703,206.445z"/>
        <path fill="#FFFFFF" d="M192.896,216.124c0-0.097,0-0.291,0.097-0.387c-0.097,0.678-0.194,1.355-0.194,2.033
		c0-0.387,0-0.774,0.097-1.162C192.798,216.317,192.896,216.221,192.896,216.124z"/>
        <path fill="#FFFFFF" d="M197.154,208.768c-0.193,0.194-0.484,0.387-0.677,0.581c0.097-0.097,0.29-0.194,0.387-0.387
		C196.96,208.962,197.057,208.865,197.154,208.768z"/>
        <path fill="#FFFFFF" d="M193.282,214.285c-0.097,0.291-0.193,0.677-0.29,0.968c0-0.193,0.097-0.291,0.097-0.484
		C193.186,214.672,193.282,214.479,193.282,214.285z"/>
        <path fill="#FFFFFF" d="M200.542,206.833c0.193-0.097,0.387-0.097,0.581-0.193C200.929,206.736,200.735,206.833,200.542,206.833z"
        />
        <path fill="#FFFFFF" d="M193.669,213.317c-0.097,0.29-0.193,0.581-0.387,0.871c0.097-0.194,0.097-0.291,0.194-0.484
		C193.573,213.607,193.669,213.414,193.669,213.317z"/>
        <g>
		<path fill="#FFFFFF" d="M101.723,246.225h-4.839v13.26h4.839c3.871,0,7.162-3,7.162-6.678S105.691,246.225,101.723,246.225z"/>
            <path fill="#FFFFFF" d="M235.191,285.326l-18.874-50.039v54.781h-21.583v-57.104h20.712l-2.226-5.807
			c-0.097,0.097-0.193,0.097-0.29,0.193c-0.194,0.097-0.387,0.291-0.581,0.387c-0.193,0.097-0.29,0.194-0.484,0.291l0,0
			c-0.097,0-0.193,0.097-0.29,0.097l0,0c-0.291,0.194-0.678,0.291-1.065,0.484l0,0c-0.871,0.291-1.742,0.581-2.613,0.774l0,0
			c-0.193,0-0.387,0.097-0.484,0.097c-0.193,0-0.484,0.097-0.677,0.097l0,0c-0.387,0-0.774,0.097-1.162,0.097
			c-7.065,0-12.873-5.227-12.873-11.711c0-0.677,0.097-1.355,0.193-2.032c0-0.097,0-0.194,0.097-0.387l0,0
			c0.097-0.291,0.193-0.678,0.29-0.968v-0.097l0,0c0.097-0.29,0.194-0.581,0.387-0.871c0-0.097,0.097-0.193,0.097-0.193l0,0
			c0.097-0.291,0.291-0.484,0.387-0.678c0.097-0.097,0.097-0.193,0.194-0.29l0,0c0.29-0.484,0.581-0.968,0.968-1.355l0,0
			c0.097-0.194,0.291-0.291,0.387-0.484l0,0c0.097-0.097,0.29-0.291,0.387-0.387c0.193-0.194,0.29-0.291,0.484-0.484l0,0
			c0.193-0.194,0.484-0.387,0.677-0.581c0.097-0.097,0.097-0.097,0.194-0.193l0,0c0.774-0.581,1.645-1.064,2.516-1.549l0,0
			c0.194-0.097,0.387-0.193,0.581-0.29l0,0c0.193-0.097,0.387-0.097,0.581-0.194l0,0c0.193-0.097,0.387-0.193,0.581-0.193l0,0
			c0.194-0.097,0.387-0.097,0.581-0.097l0,0c0.193-0.097,0.387-0.097,0.581-0.097c0.387-0.097,0.678-0.097,1.064-0.193
			c0.097,0,0.194,0,0.291,0l0,0c0.194,0,0.387,0,0.581,0c0.194,0,0.387,0,0.581,0l-2.71-7.162l-147.6,33.778
			c-5.033,1.162-8.13,3.775-9.679,6.775c-1.355,2.807-1.645,5.807,0.387,10.066l30.584,63.104c0.291,0.581,0.581,1.064,0.871,1.646
			l146.051-9.581C234.514,304.104,239.353,296.359,235.191,285.326z M104.045,272.744h-7.162v17.324H75.3v-57.104h28.746
			c14.518,0,26.423,9.001,26.423,19.938C130.468,263.743,118.563,272.744,104.045,272.744z M188.153,250.096
			c-9.582-4.452-20.519-4.743-26.713-0.678c-7.646,5.033-7.646,19.067,0,24.003c6.194,4.064,17.131,3.774,26.713-0.678v14.034
			c-11.421,4.161-27.584,6.097-40.554-1.839c-18.68-11.421-18.68-35.714,0-47.039c12.97-7.937,29.133-6,40.554-1.839V250.096z"/>
	</g>
</g>
</svg>
