<svg version="1.1" id="Layer_1" xmlns="http://www.w3.org/2000/svg" x="0px" y="0px"
     width="358.398px" height="232px" viewBox="0 0 358.398 232" enable-background="new 0 0 358.398 232"
     xml:space="preserve">
<radialGradient id="SVGID_1_" cx="-75.0811" cy="372.6787" r="0.9998"
                gradientTransform="matrix(230 195.0004 301.2399 -355.308 -94957 147063.625)"
                gradientUnits="userSpaceOnUse">
	<stop offset="0" style="stop-color:#069848"/>
    <stop offset="1" style="stop-color:#68B645"/>
</radialGradient>
    <linearGradient id="SVGID_2_" gradientUnits="userSpaceOnUse" x1="191.9229" y1="-207.8682" x2="326.9229" y2="6.1318"
                    gradientTransform="matrix(1 0 0 -1 -50 30.5186)">
	<stop offset="0" style="stop-color:#68B645;stop-opacity:0"/>
        <stop offset="1" style="stop-color:#68B645"/>
</linearGradient>
    <path fill="url(#SVGID_1_)" d="M16,0h326.398c8.836,0,16,7.164,16,16v200c0,8.836-7.164,16-16,16H16c-8.836,0-16-7.164-16-16V16
	C0,7.164,7.164,0,16,0z"/>
    <g transform="translate(0, 60)">
    <path fill="url(#SVGID_2_)" d="M401.43,181.234L338.432,13.642v-0.121c-2.524-6.251-6.371-10.219-11.541-12.143
	c-4.569-1.683-10.1-1.803-17.554-0.481L20.318,67.983C9.257,70.508,4.208,76.399,2.044,80.847C0.601,83.732,0,86.377,0,89.263
	c0,3.246,0.962,6.732,2.765,10.579l57.948,119.504c5.651,11.661,15.269,17.913,27.291,17.913c0.842,0,1.563,0,2.404-0.12
	l288.299-18.875c10.459-0.722,18.154-4.569,22.361-11.181C405.156,200.35,405.276,191.453,401.43,181.234z M172.642,217.662
	l-86.682,5.652c-3.366,0.239-5.891-1.324-7.454-4.449l-17.432-35.946c-0.481-0.962-0.722-1.804-0.722-2.525
	c0-0.601,0.121-1.202,0.481-1.804c0.722-1.441,2.285-2.523,4.449-3.005l86.802-20.078c0.961-0.12,1.683-0.24,2.404-0.24
	c0.842,0,1.443,0.12,2.044,0.361c1.202,0.36,1.924,1.321,2.525,2.765l18.995,50.374c0.962,2.646,0.962,4.81,0,6.372
	C177.211,216.58,175.287,217.422,172.642,217.662z M177.813,218.625c1.202-0.721,1.923-1.563,2.404-2.284
	c0.962-1.563,1.804-4.328,0.241-8.536l-18.996-50.254l-0.12-0.24c-0.842-2.164-2.164-3.486-3.968-4.088
	c-1.442-0.602-3.366-0.602-5.77-0.12l-86.802,20.077c-3.607,0.842-5.29,2.766-6.012,4.328c-0.48,0.842-0.601,1.684-0.721,2.525
	l-3.126-6.492c-0.601-1.202-0.841-2.284-0.841-3.246c0-0.842,0.24-1.563,0.601-2.404c0.962-1.924,3.005-3.367,5.771-3.968
	l109.284-25.367c1.202-0.241,2.164-0.36,3.125-0.36c1.082,0,1.924,0.119,2.645,0.36c1.563,0.601,2.645,1.683,3.367,3.606
	l23.804,63.358c1.323,3.366,1.323,6.251,0,8.296c-1.202,2.043-3.728,3.245-7.093,3.486L177.813,218.625z M201.377,218.384
	c1.441-0.723,2.645-1.805,3.365-3.126c1.684-2.765,1.803-6.372,0.24-10.46l-23.804-63.238v-0.24l-0.241-0.24
	c-1.082-2.404-2.644-3.967-4.688-4.81c-1.804-0.721-4.088-0.721-7.094-0.239L59.871,161.398c-4.448,1.082-6.492,3.486-7.453,5.289
	c-0.602,1.203-0.842,2.285-0.842,3.487l-2.885-6.011c-0.721-1.563-1.082-2.887-1.082-4.088c0-0.963,0.241-2.045,0.721-3.006
	c1.202-2.404,3.727-4.209,7.213-4.93l131.766-30.537c1.443-0.24,2.645-0.361,3.727-0.361c1.323,0,2.285,0.121,3.246,0.481
	c1.924,0.722,3.246,2.164,4.208,4.569l28.734,76.463c1.563,4.087,1.563,7.693,0,10.219c-1.563,2.524-4.569,3.967-8.777,4.328
	L201.377,218.384z M224.819,218.143c1.924-0.961,3.487-2.284,4.448-3.967c2.045-3.246,2.045-7.454,0.24-12.383l-28.732-76.222
	l-0.121-0.361c-1.202-3.006-3.126-4.93-5.65-5.771c-2.164-0.842-4.809-0.842-8.416-0.24L54.942,149.857
	c-5.29,1.201-7.694,4.086-8.776,6.252c-0.721,1.441-0.961,2.765-0.961,4.086c0,0.121,0,0.241,0,0.361l-2.765-5.65
	c-0.842-1.804-1.323-3.367-1.323-4.81c0-1.202,0.24-2.403,0.962-3.728c1.443-2.885,4.328-4.928,8.536-5.891l154.128-35.705
	c1.684-0.361,3.126-0.481,4.448-0.481c1.563,0,2.765,0.239,3.847,0.601c2.285,0.842,3.969,2.525,5.051,5.41l33.662,89.566
	c1.803,4.93,1.803,9.138,0,12.144c-1.804,3.005-5.531,4.81-10.46,5.17L224.819,218.143z M248.143,217.904
	c2.404-1.082,4.328-2.646,5.65-4.689c2.285-3.727,2.405-8.656,0.241-14.307l-33.663-89.447c-1.443-3.486-3.607-5.77-6.492-6.852
	c-2.524-0.963-5.529-0.963-9.738-0.242L50.013,138.074c-6.131,1.443-8.896,4.689-10.099,7.213c-0.842,1.563-1.202,3.127-1.202,4.81
	c0,0.241,0,0.481,0,0.843l-2.525-5.291c-0.962-2.043-1.563-3.967-1.563-5.65c0-1.442,0.361-2.766,1.082-4.328
	c1.683-3.366,5.049-5.77,9.858-6.852l176.609-40.877c1.924-0.361,3.607-0.481,5.17-0.481c1.804,0,3.246,0.241,4.569,0.722
	c2.646,0.962,4.568,3.005,5.892,6.372l38.592,102.431c2.164,5.65,2.164,10.58-0.121,14.066c-2.164,3.486-6.371,5.529-12.143,5.891
	L248.143,217.904z M271.587,217.662c3.005-1.201,5.29-3.004,6.732-5.529c2.645-4.208,2.645-9.857,0.241-16.23L239.969,93.35
	c-1.563-3.967-3.969-6.491-7.334-7.694c-2.886-1.082-6.373-1.082-10.94-0.239l-176.73,40.995
	c-6.973,1.563-10.099,5.291-11.542,8.176c-0.842,1.804-1.322,3.607-1.322,5.41c0,0.361,0,0.842,0.12,1.203l-2.405-4.931
	c-1.202-2.403-1.683-4.448-1.683-6.37c0-1.685,0.361-3.246,1.203-4.931c1.923-3.847,5.771-6.612,11.181-7.813l199.092-46.167
	c2.164-0.361,4.088-0.602,5.891-0.602c2.045,0,3.727,0.241,5.17,0.842c3.006,1.082,5.29,3.487,6.732,7.214l43.4,115.535
	c2.405,6.492,2.405,12.023-0.119,15.99c-2.404,3.967-7.213,6.372-13.826,6.732L271.587,217.662z M294.91,217.422
	c3.487-1.323,6.132-3.487,7.936-6.252c2.885-4.688,3.006-10.94,0.36-18.154l-43.4-115.415l-0.121-0.24
	c-1.804-4.329-4.448-7.094-8.175-8.416c-3.127-1.202-7.094-1.202-12.264-0.361L40.035,114.75
	c-7.814,1.804-11.301,5.891-12.864,9.137c-0.962,2.044-1.443,3.968-1.443,6.013c0,0.479,0,1.082,0.12,1.683l-2.284-4.569
	c-1.322-2.645-1.924-5.049-1.924-7.213c0-1.805,0.481-3.607,1.323-5.531c2.164-4.328,6.492-7.333,12.624-8.775L257.28,54.037
	c2.404-0.481,4.569-0.721,6.492-0.721c2.284,0,4.088,0.36,5.771,0.961c3.366,1.203,5.892,3.848,7.574,8.055l48.33,128.52
	c2.765,7.214,2.645,13.466-0.12,17.914s-8.055,7.093-15.389,7.574L294.91,217.422z M318.354,217.182
	c3.967-1.442,7.093-3.848,9.137-7.094c3.246-5.169,3.366-12.142,0.361-20.077l-48.451-128.4v-0.12
	c-2.044-4.929-4.929-7.935-9.017-9.498c-3.486-1.322-7.814-1.443-13.586-0.361L35.105,102.968
	c-8.656,2.044-12.503,6.613-14.187,10.1c-1.082,2.283-1.683,4.327-1.563,6.612c0,0.722,0.121,1.322,0.121,2.043l-2.044-4.208
	c-1.443-3.005-2.164-5.529-2.164-7.934c0-2.045,0.481-3.969,1.563-6.133c2.404-4.809,7.213-8.174,13.946-9.737l243.936-56.505
	c2.645-0.481,5.05-0.722,7.213-0.722c2.525,0,4.569,0.361,6.372,0.962c3.848,1.322,6.612,4.328,8.416,9.017l53.26,141.504
	c3.006,7.935,3.006,14.908-0.12,19.837c-3.126,4.93-9.018,7.936-17.072,8.416L318.354,217.182z M341.679,216.941
	c4.567-1.563,8.055-4.207,10.339-7.935c3.485-5.649,3.606-13.224,0.36-22.001l-53.26-141.384l-0.12-0.12
	c-2.164-5.29-5.41-8.656-9.858-10.339c-3.848-1.443-8.535-1.563-14.907-0.361L30.176,91.307c-9.498,2.164-13.706,7.213-15.509,11.06
	c-1.202,2.525-1.804,4.81-1.804,7.215c0,0.841,0.121,1.683,0.241,2.523l-1.924-3.967c-1.563-3.246-2.284-6.131-2.404-8.775
	c0-2.285,0.481-4.449,1.683-6.733c2.645-5.29,7.935-9.017,15.269-10.7l266.417-61.795c3.006-0.481,5.529-0.842,7.935-0.842
	c2.766,0,5.049,0.361,7.093,1.082c4.089,1.443,7.094,4.689,9.258,9.738l58.188,154.729c3.246,8.777,3.246,16.23-0.12,21.761
	c-3.366,5.41-9.858,8.656-18.755,9.257L341.679,216.941z M399.025,205.76c-3.728,5.892-10.7,9.378-20.439,10.099l-13.705,0.842
	c5.169-1.684,9.138-4.688,11.541-8.656c3.849-6.131,3.969-14.426,0.361-23.924L318.835,29.752l-0.12-0.241
	c-2.404-5.771-5.891-9.498-10.699-11.301c-4.208-1.563-9.259-1.683-16.231-0.361L25.247,79.645
	c-10.339,2.404-14.908,7.814-16.952,11.902c-1.322,2.646-1.923,5.17-1.923,7.815c0,0.961,0.12,2.043,0.24,3.004L4.809,98.64
	c-1.563-3.365-2.405-6.492-2.405-9.377c0-2.525,0.601-4.809,1.804-7.334c2.885-5.771,8.656-9.738,16.711-11.662L309.818,3.303
	c3.246-0.601,6.011-0.842,8.536-0.842c3.006,0,5.41,0.361,7.693,1.202c4.569,1.683,7.815,5.17,10.1,10.82l63.118,167.592
	C402.752,191.574,402.752,199.75,399.025,205.76z"/>
    </g>
</svg>
