<svg version="1.1" xmlns="http://www.w3.org/2000/svg"
     viewBox="50 50 150 100">
    <g fill="white">
        <g>
            <path d="M168.1,143.6H82.9c-10.2,0-18.5-8.3-18.5-18.5V74.9c0-10.2,8.3-18.5,18.5-18.5h85.3
                        c10.2,0,18.5,8.3,18.5,18.5v50.2C186.6,135.3,178.3,143.6,168.1,143.6z"/>
        </g>
        <g stroke="black" stroke-width="2">
            <g>
                <rect x="82" y="70" width="1.5" height="60"/>
            </g>
            <g>
                <rect x="167.4" y="70" width="1.5" height="60"/>
            </g>
            <g>
                <path d="M125.5,130.8c-10.2,0-18.5-8.3-18.5-18.5c0-4.6,1.7-8.9,4.7-12.3c-3-3.4-4.7-7.7-4.7-12.3
                            c0-10.2,8.3-18.5,18.5-18.5s18.5,8.3,18.5,18.5c0,4.6-1.7,8.9-4.7,12.3c3,3.4,4.7,7.7,4.7,12.3
                            C143.9,122.5,135.7,130.8,125.5,130.8z M125.5,70.8c-9.3,0-16.9,7.6-16.9,16.9c0,4.4,1.7,8.6,4.8,11.8l0.5,0.5l-0.5,0.5
                            c-3.1,3.2-4.8,7.4-4.8,11.8c0,9.3,7.6,16.9,16.9,16.9s16.9-7.6,16.9-16.9c0-4.4-1.7-8.6-4.8-11.8l-0.5-0.5l0.5-0.5
                            c3.1-3.2,4.8-7.4,4.8-11.8C142.4,78.4,134.8,70.8,125.5,70.8z"/>
            </g>
            <g>
                <rect x="82.8" y="82.1" width="25.8" height="1.5"/>
            </g>
            <g>
                <rect x="82.8" y="117.9" width="26.1" height="1.5"/>
            </g>
            <g>
                <rect x="142.4" y="82.1" width="25.8" height="1.5"/>
            </g>
            <g>
                <rect x="142" y="117.9" width="26.2" height="1.5"/>
            </g>
        </g>
    </g>
</svg>