<?xml version="1.0" encoding="UTF-8"?>
<svg id="Layer_1" xmlns="http://www.w3.org/2000/svg" version="1.1" xmlns:xlink="http://www.w3.org/1999/xlink" viewBox="0 0 750 471">
  <!-- Generator: Adobe Illustrator 30.4.0, SVG Export Plug-In . SVG Version: 2.1.4 Build 226)  -->
  <defs>
    <style>
      .st0 {
        fill: #fff;
      }

      .st1 {
        mask: url(#mask);
      }
    </style>
    <mask id="mask" x="310.2" y="111.82" width="393.87" height="247.35" maskUnits="userSpaceOnUse">
      <g id="card">
        <rect class="st0" x="310.2" y="111.82" width="393.87" height="247.35"/>
        <path d="M310.2,227.98h18.92l4.27-10.25h9.55l4.25,10.25h37.22v-7.83l3.32,7.87h19.32l3.32-7.98v7.95h92.51l-.04-16.82h1.79c1.25.04,1.62.16,1.62,2.22v14.6h47.85v-3.92c3.86,2.06,9.86,3.92,17.76,3.92h20.13l4.31-10.25h9.55l4.21,10.25h38.79v-9.73l5.87,9.73h31.08v-64.34h-30.76v7.6l-4.31-7.6h-31.56v7.6l-3.96-7.6h-42.64c-7.14,0-13.41.99-18.48,3.76v-3.76h-29.42v3.76c-3.22-2.85-7.62-3.76-12.51-3.76h-107.49l-7.21,16.62-7.41-16.62h-33.86v7.6l-3.72-7.6h-28.88l-13.41,30.59v33.75h0ZM429.62,218.7h-11.35l-.04-36.13-16.06,36.13h-9.72l-16.1-36.16v36.16h-22.52l-4.25-10.29h-23.05l-4.3,10.29h-12.03l19.83-46.13h16.45l18.83,43.67v-43.67h18.07l14.49,31.29,13.31-31.29h18.44v46.13h0ZM345.79,198.84l-7.58-18.39-7.54,18.39h15.11ZM474.79,218.7h-36.99v-46.13h36.99v9.61h-25.92v8.31h25.29v9.46h-25.29v9.21h25.92v9.54ZM526.92,185c0,7.35-4.93,11.15-7.8,12.3,2.42.92,4.49,2.54,5.48,3.88,1.56,2.29,1.83,4.34,1.83,8.46v9.06h-11.17l-.04-5.82c0-2.78.27-6.77-1.75-8.99-1.62-1.62-4.08-1.97-8.07-1.97h-11.89v16.78h-11.07v-46.13h25.47c5.66,0,9.83.15,13.41,2.21,3.5,2.06,5.6,5.07,5.6,10.21h0ZM512.92,191.85c-1.52.92-3.32.95-5.48.95h-13.45v-10.25h13.63c1.93,0,3.94.09,5.25.83,1.44.67,2.33,2.1,2.33,4.08s-.85,3.64-2.28,4.39ZM544.68,218.7h-11.3v-46.13h11.3v46.13ZM675.83,218.7h-15.69l-20.99-34.62v34.62h-22.55l-4.31-10.29h-23l-4.18,10.29h-12.96c-5.38,0-12.2-1.19-16.06-5.1-3.89-3.92-5.92-9.22-5.92-17.61,0-6.84,1.21-13.1,5.97-18.04,3.58-3.68,9.19-5.38,16.82-5.38h10.72v9.88h-10.49c-4.04,0-6.32.6-8.52,2.73-1.89,1.94-3.18,5.61-3.18,10.45s.99,8.51,3.04,10.83c1.7,1.83,4.8,2.38,7.72,2.38h4.97l15.61-36.28h16.59l18.75,43.63v-43.63h16.86l19.46,32.13v-32.13h11.34v46.13ZM608.53,198.84l-7.66-18.39-7.62,18.39h15.28Z"/>
        <path d="M704.04,292.36c-2.69,3.92-7.93,5.9-15.03,5.9h-21.38v-9.89h21.3c2.11,0,3.59-.28,4.48-1.14.77-.71,1.31-1.75,1.31-3.01,0-1.34-.54-2.41-1.35-3.05-.8-.7-1.97-1.02-3.9-1.02-10.4-.35-23.37.32-23.37-14.28,0-6.69,4.27-13.74,15.89-13.74h22.06v-9.18s-20.49,0-20.49,0c-6.18,0-10.68,1.47-13.86,3.77v-3.77h-30.31c-4.85,0-10.54,1.2-13.23,3.77v-3.77h-54.13v3.77c-4.31-3.09-11.58-3.77-14.93-3.77h-35.7v3.77c-3.41-3.29-10.99-3.77-15.61-3.77h-39.96l-9.14,9.85-8.56-9.85h-59.69v64.38h58.56l9.42-10.01,8.88,10.01,36.1.03v-15.14h3.55c4.79.07,10.44-.12,15.42-2.26v17.38h29.77v-16.78h1.29c1.19,0,2.16.97,2.16,2.16v14.62h90.45c5.74,0,11.75-1.46,15.07-4.12v4.12h28.69c5.97,0,11.8-.83,16.24-2.97v-11.99h0ZM524.7,267.59c0,12.82-9.6,15.46-19.28,15.46h-13.82v15.48h-21.52l-13.63-15.27-14.17,15.27h-43.86v-46.14h44.53l13.62,15.12,14.08-15.12h35.38c8.79,0,18.66,2.42,18.66,15.2ZM436.67,288.83h-27.22v-9.18h24.31v-9.41h-24.31v-8.39h27.76l12.11,13.45-12.65,13.54ZM480.53,294.11l-17-18.79,17-18.2v36.99ZM505.68,273.6h-14.31v-11.75h14.44c4,0,6.77,1.62,6.77,5.66s-2.65,6.09-6.9,6.09ZM580.64,252.39h36.96v9.54h-25.93v8.39h25.3v9.41h-25.3v9.18l25.93.04v9.57h-36.96v-46.14ZM566.43,277.09c2.46.91,4.48,2.53,5.42,3.87,1.56,2.25,1.79,4.35,1.83,8.42v9.15h-11.12v-5.77c0-2.78.27-6.89-1.79-9.03-1.62-1.65-4.08-2.05-8.12-2.05h-11.83v16.85h-11.13v-46.14h25.56c5.61,0,9.69.25,13.32,2.18,3.49,2.1,5.69,4.98,5.69,10.25,0,7.36-4.93,11.12-7.85,12.27ZM560.17,271.26c-1.48.88-3.31.95-5.47.95h-13.45v-10.36h13.63c1.97,0,3.94.04,5.28.83,1.43.75,2.29,2.18,2.29,4.15s-.86,3.56-2.29,4.43ZM660.13,274.2c2.16,2.22,3.31,5.03,3.31,9.78,0,9.93-6.23,14.56-17.39,14.56h-21.57v-9.89h21.48c2.1,0,3.59-.28,4.52-1.14.76-.71,1.31-1.75,1.31-3.01,0-1.34-.59-2.41-1.35-3.05-.85-.7-2.01-1.02-3.94-1.02-10.35-.35-23.32.32-23.32-14.28,0-6.69,4.22-13.74,15.83-13.74h22.2v9.82h-20.31c-2.01,0-3.32.08-4.44.83-1.21.75-1.66,1.86-1.66,3.32,0,1.74,1.03,2.92,2.42,3.44,1.17.4,2.42.52,4.31.52l5.96.16c6.01.15,10.14,1.18,12.64,3.71ZM704.07,261.85h-20.18c-2.01,0-3.35.08-4.48.83-1.17.75-1.62,1.86-1.62,3.32,0,1.74.99,2.92,2.42,3.44,1.17.4,2.42.52,4.27.52l6,.16c6.06.15,10.1,1.19,12.56,3.71.45.35.72.75,1.03,1.14v-13.13Z"/>
      </g>
    </mask>
  </defs>
  <g class="st1">
    <rect class="st0" x="310.2" y="111.82" width="393.87" height="247.35" rx="40" ry="40"/>
  </g>
</svg>