<?xml version="1.0" encoding="UTF-8"?>
<svg id="Layer_1" xmlns="http://www.w3.org/2000/svg" version="1.1" xmlns:xlink="http://www.w3.org/1999/xlink" viewBox="0 0 750 471">
  <!-- Generator: Adobe Illustrator 30.4.0, SVG Export Plug-In . SVG Version: 2.1.4 Build 226)  -->
  <defs>
    <style>
      .st0 {
        fill: #fff;
      }

      .st1 {
        mask: url(#mask);
      }
    </style>
    <mask id="mask" x="159.43" y="100.12" width="431.13" height="270.75" maskUnits="userSpaceOnUse">
      <g id="card">
        <rect class="st0" x="159.43" y="100.12" width="431.13" height="270.75"/>
        <path d="M159.44,227.27h20.71l4.67-11.22h10.45l4.66,11.22h40.74v-8.57l3.64,8.61h21.15l3.64-8.74v8.7h101.26l-.05-18.41h1.96c1.37.05,1.77.17,1.77,2.43v15.98h52.37v-4.29c4.22,2.25,10.79,4.29,19.44,4.29h22.03l4.72-11.22h10.45l4.61,11.22h42.46v-10.65l6.43,10.65h34.02v-70.42h-33.67v8.32l-4.72-8.32h-34.55v8.32l-4.33-8.32h-46.67c-7.81,0-14.68,1.09-20.23,4.11v-4.11h-32.21v4.11c-3.53-3.12-8.34-4.11-13.69-4.11h-117.66l-7.89,18.19-8.11-18.19h-37.06v8.32l-4.07-8.32h-31.61l-14.68,33.48v36.94h0ZM290.15,217.11h-12.43l-.05-39.55-17.57,39.55h-10.64l-17.62-39.58v39.58h-24.65l-4.66-11.26h-25.24l-4.7,11.26h-13.16l21.7-50.49h18.01l20.61,47.81v-47.81h19.78l15.86,34.25,14.57-34.25h20.18v50.49h0ZM198.4,195.37l-8.3-20.13-8.25,20.13h16.54ZM339.6,217.11h-40.49v-50.49h40.49v10.51h-28.37v9.1h27.69v10.35h-27.69v10.08h28.37v10.44ZM396.66,180.22c0,8.05-5.4,12.21-8.54,13.46,2.65,1.01,4.92,2.78,6,4.25,1.71,2.51,2.01,4.75,2.01,9.26v9.92h-12.22l-.05-6.37c0-3.04.29-7.41-1.91-9.84-1.77-1.78-4.47-2.16-8.83-2.16h-13.01v18.37h-12.12v-50.49h27.88c6.19,0,10.76.16,14.68,2.42,3.83,2.26,6.13,5.55,6.13,11.18h0ZM381.34,187.72c-1.67,1.01-3.64,1.04-6,1.04h-14.72v-11.22h14.92c2.11,0,4.32.09,5.75.91,1.57.74,2.54,2.3,2.54,4.46s-.93,3.98-2.5,4.8ZM416.09,217.11h-12.37v-50.49h12.37v50.49ZM559.66,217.11h-17.18l-22.97-37.9v37.9h-24.68l-4.72-11.26h-25.18l-4.58,11.26h-14.18c-5.89,0-13.35-1.3-17.57-5.58-4.26-4.29-6.48-10.09-6.48-19.28,0-7.49,1.32-14.33,6.53-19.74,3.92-4.03,10.05-5.89,18.41-5.89h11.73v10.82h-11.49c-4.42,0-6.92.65-9.33,2.99-2.07,2.13-3.48,6.15-3.48,11.44s1.08,9.31,3.33,11.86c1.87,2,5.26,2.6,8.45,2.6h5.44l17.08-39.71h18.16l20.52,47.76v-47.76h18.45l21.3,35.17v-35.17h12.41v50.49ZM485.98,195.37l-8.39-20.13-8.34,20.13h16.73Z"/>
        <path d="M590.54,297.74c-2.94,4.29-8.68,6.46-16.45,6.46h-23.41v-10.83h23.31c2.31,0,3.93-.3,4.9-1.25.84-.78,1.43-1.92,1.43-3.29,0-1.47-.59-2.64-1.48-3.34-.88-.77-2.16-1.12-4.27-1.12-11.38-.39-25.58.35-25.58-15.63,0-7.33,4.67-15.04,17.39-15.04h24.14v-10.05s-22.43,0-22.43,0c-6.77,0-11.69,1.61-15.17,4.12v-4.12h-33.18c-5.31,0-11.53,1.31-14.48,4.12v-4.12h-59.25v4.12c-4.72-3.39-12.67-4.12-16.34-4.12h-39.08v4.12c-3.73-3.6-12.03-4.12-17.08-4.12h-43.74l-10.01,10.79-9.37-10.79h-65.33v70.47h64.1l10.31-10.96,9.71,10.96,39.51.04v-16.58h3.88c5.24.08,11.43-.13,16.88-2.48v19.02h32.59v-18.37h1.59c1.21,0,2.19.98,2.19,2.19v16.18h99.01c6.29,0,12.86-1.6,16.49-4.51v4.51h31.4c6.54,0,12.92-.91,17.77-3.25v-13.13h0ZM394.23,270.63c0,14.03-10.51,16.93-21.11,16.93h-15.12v16.94h-23.56l-14.92-16.72-15.51,16.72h-48.01v-50.5h48.75l14.91,16.55,15.42-16.55h38.73c9.62,0,20.43,2.65,20.43,16.64ZM297.87,293.87h-29.8v-10.05h26.61v-10.3h-26.61v-9.18h30.39l13.26,14.72-13.84,14.82ZM345.89,299.66l-18.61-20.57,18.61-19.92v40.49ZM373.41,277.2h-15.66v-12.86h15.8c4.38,0,7.41,1.78,7.41,6.19s-2.9,6.67-7.55,6.67ZM455.46,253.99h40.45v10.44h-28.38v9.18h27.69v10.3h-27.69v10.05l28.38.05v10.48h-40.45v-50.5ZM439.91,281.03c2.7.99,4.9,2.77,5.94,4.24,1.71,2.47,1.96,4.77,2.01,9.22v10.01h-12.17v-6.32c0-3.04.29-7.54-1.96-9.89-1.77-1.81-4.47-2.24-8.89-2.24h-12.95v18.45h-12.18v-50.5h27.98c6.14,0,10.6.27,14.58,2.38,3.83,2.3,6.23,5.45,6.23,11.22,0,8.06-5.4,12.17-8.59,13.44ZM433.06,274.64c-1.62.96-3.63,1.04-5.98,1.04h-14.72v-11.34h14.92c2.16,0,4.32.05,5.78.91,1.57.82,2.51,2.38,2.51,4.54s-.94,3.9-2.51,4.85ZM542.47,277.86c2.36,2.43,3.62,5.5,3.62,10.7,0,10.86-6.82,15.94-19.04,15.94h-23.61v-10.83h23.51c2.3,0,3.93-.3,4.95-1.25.83-.78,1.43-1.92,1.43-3.29,0-1.47-.65-2.64-1.48-3.34-.93-.77-2.21-1.12-4.32-1.12-11.33-.39-25.53.35-25.53-15.63,0-7.33,4.62-15.04,17.33-15.04h24.3v10.75h-22.23c-2.2,0-3.64.08-4.86.91-1.33.82-1.82,2.03-1.82,3.63,0,1.91,1.13,3.2,2.65,3.76,1.28.44,2.65.57,4.72.57l6.52.18c6.58.16,11.1,1.29,13.84,4.06ZM590.57,264.34h-22.09c-2.21,0-3.67.08-4.9.91-1.28.82-1.77,2.03-1.77,3.63,0,1.91,1.08,3.2,2.65,3.76,1.28.44,2.65.57,4.67.57l6.57.18c6.63.16,11.05,1.3,13.75,4.06.49.39.79.82,1.12,1.25v-14.37Z"/>
      </g>
    </mask>
  </defs>
  <g class="st1">
    <rect class="st0" x="159.43" y="100.12" width="431.13" height="270.75" rx="40" ry="40"/>
  </g>
</svg>