<?xml version="1.0" encoding="UTF-8"?>
<svg id="Layer_1" xmlns="http://www.w3.org/2000/svg" version="1.1" viewBox="0 0 750 471">
  <!-- Generator: Adobe Illustrator 30.4.0, SVG Export Plug-In . SVG Version: 2.1.4 Build 226)  -->
  <defs>
    <style>
      .st0, .st1 {
        fill: #fff;
      }

      .st1 {
        fill-rule: evenodd;
      }
    </style>
  </defs>
  <path class="st1" d="M705.27,236.5c0-68.46-57.14-115.78-119.75-115.76h-53.88c-63.35-.02-115.5,47.31-115.5,115.76,0,62.62,52.15,114.06,115.5,113.76h53.88c62.6.3,119.75-51.16,119.75-113.76h0ZM531.97,130.44c-57.89.02-104.8,47.04-104.82,105.07.01,58.02,46.93,105.04,104.82,105.05,57.9-.02,104.83-47.03,104.83-105.05,0-58.03-46.93-105.05-104.83-105.07h0Z"/>
  <path class="st0" d="M465.72,235.22c.06-28.36,17.73-52.54,42.65-62.15v124.28c-24.92-9.6-42.6-33.77-42.65-62.13ZM555.93,297.39v-124.31c24.93,9.59,42.64,33.78,42.68,62.15-.05,28.38-17.75,52.56-42.68,62.16Z"/>
</svg>