<?xml version="1.0" encoding="UTF-8"?>
<svg id="Layer_1" xmlns="http://www.w3.org/2000/svg" version="1.1" viewBox="0 0 750 471">
  <!-- Generator: Adobe Illustrator 30.4.0, SVG Export Plug-In . SVG Version: 2.1.4 Build 226)  -->
  <defs>
    <style>
      .st0 {
        fill: #fff;
      }

      .st1 {
        fill: #d3d3d3;
      }
    </style>
  </defs>
  <path class="st1" d="M394.41,182.76c30.94,0,56.02,23.58,56.02,52.71v.03c0,29.13-25.08,52.74-56.02,52.74s-56.02-23.61-56.02-52.74v-.03c0-29.13,25.08-52.71,56.02-52.71h0Z"/>
  <path class="st0" d="M306.43,183.44c8.84,0,16.25,1.79,25.27,6.09v22.75c-8.54-7.86-15.95-11.15-25.76-11.15-19.26,0-34.41,15.01-34.41,34.05,0,20.07,14.68,34.19,35.37,34.19,9.31,0,16.59-3.12,24.8-10.86v22.76c-9.34,4.14-16.91,5.77-25.76,5.77-31.28,0-55.58-22.6-55.58-51.74,0-28.83,24.95-51.88,56.07-51.88h0Z"/>
  <path class="st0" d="M209.32,184.06c11.55,0,22.11,3.72,30.94,10.99l-10.75,13.25c-5.35-5.65-10.41-8.03-16.56-8.03-8.85,0-15.3,4.74-15.3,10.99,0,5.35,3.62,8.19,15.94,12.48,23.36,8.04,30.29,15.18,30.29,30.93,0,19.19-14.98,32.55-36.32,32.55-15.63,0-26.99-5.8-36.46-18.87l13.27-12.03c4.73,8.61,12.62,13.22,22.42,13.22,9.16,0,15.95-5.95,15.95-13.98,0-4.16-2.06-7.73-6.16-10.26-2.07-1.2-6.16-2.98-14.2-5.65-19.29-6.54-25.91-13.53-25.91-27.19,0-16.23,14.21-28.41,32.85-28.41h0Z"/>
  <polygon class="st0" points="444.04 185.79 466.48 185.79 494.56 252.39 523.01 185.79 545.28 185.79 499.78 287.48 488.73 287.48 444.04 185.79"/>
  <polygon class="st0" points="142.83 185.95 163.37 185.95 163.37 285.09 142.83 285.09 142.83 185.95"/>
  <polygon class="st0" points="554.56 185.95 612.82 185.95 612.82 202.74 575.09 202.74 575.09 224.75 611.43 224.75 611.43 241.54 575.09 241.54 575.09 268.3 612.82 268.3 612.82 285.09 554.56 285.09 554.56 185.95"/>
  <path class="st0" d="M670.16,243.32c15.47-2.96,23.98-12.93,23.98-28.1,0-18.56-13.58-29.27-37.27-29.27h-30.45v99.14h20.52v-39.83h2.68l28.43,39.83h25.26l-33.15-41.77ZM652.94,231.59h-6v-30.02h6.33c12.79,0,19.74,5.05,19.74,14.7,0,9.97-6.95,15.33-20.07,15.33Z"/>
  <path class="st0" d="M76.85,185.95h-30.15v99.14h29.99c15.95,0,27.46-3.54,37.57-11.45,12.01-9.36,19.12-23.47,19.12-38.06,0-29.26-23.22-49.64-56.53-49.64ZM100.84,260.42c-6.45,5.48-14.84,7.88-28.11,7.88h-5.51v-65.56h5.51c13.27,0,21.32,2.24,28.11,8.02,7.1,5.96,11.38,15.18,11.38,24.68,0,9.51-4.27,19.02-11.38,24.98Z"/>
</svg>