<?xml version="1.0" encoding="UTF-8"?>
<svg id="Layer_1" xmlns="http://www.w3.org/2000/svg" version="1.1" viewBox="0 0 750 471">
  <!-- Generator: Adobe Illustrator 30.4.0, SVG Export Plug-In . SVG Version: 2.1.4 Build 226)  -->
  <defs>
    <style>
      .st0 {
        fill: #fff;
      }
    </style>
  </defs>
  <path class="st0" d="M622.56,240.43c8.8.19,17.66-.39,26.43.3,8.88,1.66,11.02,15.1,3.13,19.5-5.38,2.9-11.78,1.08-17.61,1.59h-11.94v-21.39h0ZM654.08,216.21c1.96,6.9-4.7,13.1-11.35,12.15h-20.17c.14-6.51-.28-13.58.21-19.74,8.08.23,16.23-.46,24.26.36,3.45.87,6.34,3.7,7.05,7.23h0ZM702.61,113.83c.38,13.18.05,27.06.16,40.52-.02,54.69.05,109.38-.04,164.07-.35,20.5-18.52,38.3-38.87,38.71-20.37.08-40.75.01-61.13.04v-82.68c22.2-.12,44.41.23,66.61-.17,10.3-.65,21.57-7.44,22.05-18.77,1.21-11.38-9.52-19.25-19.7-20.49-3.92-.1-3.8-1.14,0-1.59,9.71-2.1,17.34-12.15,14.48-22.22-2.44-10.59-14.14-14.69-23.88-14.67-19.85-.13-39.71-.02-59.56-.06.13-15.44-.27-30.89.21-46.31,1.57-20.13,20.19-36.72,40.26-36.36,19.8,0,39.6,0,59.4,0h0Z"/>
  <path class="st0" d="M378.39,152.29c.51-20.46,18.75-38.13,39.08-38.43,20.3-.06,40.6,0,60.9-.03-.06,68.47.11,136.94-.08,205.4-.78,20.21-18.83,37.54-38.93,37.9-20.34.07-40.68.01-61.01.03v-85.47c19.75,4.67,40.47,6.65,60.62,3.56,12.05-1.94,25.23-7.85,29.31-20.35,3-10.69,1.31-21.94,1.76-32.91v-25.48h-34.88c-.16,16.85.32,33.73-.25,50.57-.94,10.35-11.19,16.92-20.94,16.57-12.1.13-36.08-8.77-36.08-8.77-.06-31.58.35-71.12.52-102.59h0Z"/>
  <path class="st0" d="M491.38,206.79c-1.84.39-.37-6.25-.84-8.77.13-15.93-.26-31.88.21-47.8,1.57-20.21,20.33-36.85,40.48-36.38h59.34c-.06,68.47.11,136.94-.08,205.4-.78,20.21-18.83,37.54-38.93,37.9-20.34.08-40.68.01-61.02.03v-93.64c13.89,11.4,32.77,13.17,50.08,13.2,13.05,0,26.02-2.02,38.69-5.02v-17.15c-14.28,7.12-31.06,11.64-46.89,7.55-11.04-2.75-19.05-13.42-18.88-24.81-1.28-11.85,5.67-24.36,17.31-27.88,14.46-4.53,30.21-1.06,43.77,4.82,2.9,1.52,5.85,3.41,4.69-1.45v-13.48c-22.66-5.39-46.78-7.38-69.56-1.51-6.59,1.86-13.01,4.68-18.37,9.01h0Z"/>
</svg>