<?xml version="1.0" encoding="UTF-8"?>
<svg id="Layer_1" xmlns="http://www.w3.org/2000/svg" version="1.1" viewBox="0 0 482.6 374.31">
  <!-- Generator: Adobe Illustrator 30.4.0, SVG Export Plug-In . SVG Version: 2.1.4 Build 226)  -->
  <defs>
    <style>
      .st0 {
        fill: #fff;
      }

      .st1 {
        fill: #d3d3d3;
      }
    </style>
  </defs>
  <path class="st0" d="M205.2,291.74v-17.51c0-6.61-4.24-11.06-10.99-11.11-3.54-.06-7.25,1.05-9.83,4.95-1.93-3.1-4.95-4.95-9.24-4.95-3.27-.16-6.39,1.41-8.19,4.15v-3.45h-6.09v27.96h6.14v-15.53c0-4.86,2.69-7.43,6.84-7.43s6.09,2.63,6.09,7.37v15.55h6.14v-15.49c0-4.86,2.83-7.43,6.84-7.43s6.14,2.63,6.14,7.37v15.55h6.13ZM239.48,277.76v-13.98h-6.09v3.37c-1.93-2.52-4.86-4.09-8.83-4.09-7.84,0-13.98,6.14-13.98,14.68s6.14,14.68,13.98,14.68c3.98,0,6.9-1.58,8.83-4.09v3.39h6.09v-13.97ZM216.85,277.76c0-4.91,3.22-8.95,8.48-8.95s8.42,3.86,8.42,8.95-3.39,8.95-8.42,8.95c-5.28,0-8.5-4.04-8.5-8.95h.01ZM369.65,263.05c2.05-.02,4.09.36,6,1.12,1.78.71,3.4,1.76,4.77,3.1,1.35,1.33,2.42,2.91,3.15,4.66,1.52,3.75,1.52,7.93,0,11.68-.73,1.75-1.8,3.33-3.15,4.66-1.37,1.33-2.99,2.39-4.77,3.1-3.87,1.5-8.15,1.5-12.02,0-1.77-.71-3.39-1.76-4.76-3.1-1.34-1.33-2.41-2.91-3.14-4.66-1.52-3.75-1.52-7.93,0-11.68.73-1.75,1.8-3.33,3.14-4.66,1.37-1.34,2.98-2.39,4.76-3.1,1.91-.76,3.96-1.15,6.02-1.12ZM369.65,268.8c-1.19-.01-2.37.21-3.47.66-1.04.42-1.98,1.04-2.77,1.84-.79.81-1.42,1.77-1.84,2.83-.89,2.34-.89,4.93,0,7.27.42,1.06,1.04,2.02,1.84,2.83.79.8,1.73,1.42,2.77,1.84,2.23.88,4.72.88,6.95,0,1.04-.42,1.99-1.05,2.79-1.84.8-.81,1.43-1.77,1.85-2.83.89-2.34.89-4.93,0-7.27-.42-1.06-1.05-2.02-1.85-2.83-.8-.79-1.74-1.42-2.79-1.84-1.1-.45-2.29-.67-3.48-.66h0ZM272.58,277.76c-.06-8.72-5.44-14.68-13.28-14.68s-13.92,5.97-13.92,14.68,5.97,14.68,14.33,14.68c4.24,0,8.07-1.05,11.47-3.92l-2.98-4.5c-2.31,1.85-5.17,2.88-8.13,2.93-3.92,0-7.49-1.81-8.36-6.84h20.76c.04-.77.11-1.53.11-2.35ZM251.76,275.31c.64-4.04,3.1-6.79,7.43-6.79,3.92,0,6.43,2.45,7.07,6.79h-14.5ZM298.2,270.92c-2.66-1.53-5.66-2.36-8.72-2.4-3.34,0-5.32,1.23-5.32,3.27,0,1.87,2.12,2.4,4.74,2.75l2.86.41c6.09.88,9.77,3.45,9.77,8.36,0,5.32-4.68,9.13-12.73,9.13-4.56,0-8.77-1.17-12.11-3.63l2.86-4.74c2.69,1.99,5.96,3.02,9.3,2.93,4.15,0,6.36-1.23,6.36-3.39,0-1.58-1.58-2.45-4.91-2.93l-2.86-.41c-6.26-.88-9.65-3.68-9.65-8.25,0-5.56,4.56-8.95,11.64-8.95,4.45,0,8.48,1,11.4,2.93l-2.63,4.92ZM327.44,269.35h-9.95v12.66c0,2.83,1,4.68,4.04,4.68,1.9-.06,3.75-.6,5.38-1.58l1.75,5.2c-2.28,1.42-4.92,2.17-7.61,2.16-7.2,0-9.71-3.86-9.71-10.36v-12.73h-5.66v-5.56h5.66v-8.48h6.14v8.48h9.94v5.51ZM348.49,263.09c1.48,0,2.94.27,4.33.76l-1.87,5.73c-1.21-.48-2.5-.72-3.8-.71-3.98,0-5.97,2.57-5.97,7.2v15.67h-6.08v-27.97h6v3.37c1.52-2.61,4.35-4.18,7.37-4.09l.04.03Z"/>
  <g>
    <rect class="st1" x="226.52" y="50.38" width="92.26" height="165.8"/>
    <path class="st0" d="M232.38,133.28c-.02-32.36,14.84-62.93,40.3-82.9-45.78-35.99-112.07-28.04-148.06,17.74-35.99,45.78-28.04,112.07,17.74,148.06,38.24,30.06,92.08,30.06,130.32,0-25.46-19.97-40.32-50.54-40.3-82.9Z"/>
    <path class="st0" d="M443.25,133.28c0,58.23-47.21,105.44-105.44,105.44-23.63,0-46.58-7.94-65.16-22.54,45.78-36,53.72-102.3,17.72-148.08-5.18-6.59-11.13-12.54-17.72-17.72,45.79-35.99,112.07-28.04,148.06,17.74,14.6,18.58,22.54,41.52,22.54,65.15Z"/>
  </g>
</svg>