<?xml version="1.0" encoding="UTF-8"?>
<svg id="Layer_1" xmlns="http://www.w3.org/2000/svg" version="1.1" viewBox="0 0 750 471">
  <!-- Generator: Adobe Illustrator 30.4.0, SVG Export Plug-In . SVG Version: 2.1.4 Build 226)  -->
  <defs>
    <style>
      .st0 {
        fill: #fff;
      }

      .st1 {
        fill: #d3d3d3;
      }
    </style>
  </defs>
  <path class="st0" d="M418.1,394.26v-21.13c0-7.98-5.12-13.34-13.26-13.41-4.27-.06-8.75,1.27-11.86,5.97-2.32-3.73-5.97-5.97-11.15-5.97-3.95-.2-7.71,1.7-9.88,5v-4.17h-7.34v33.73h7.42v-18.75c0-5.86,3.25-8.97,8.26-8.97s7.34,3.18,7.34,8.89v18.77h7.42v-18.7c0-5.86,3.42-8.97,8.26-8.97s7.42,3.18,7.42,8.89v18.77h7.39v.03ZM459.46,377.4v-16.87h-7.34v4.06c-2.32-3.04-5.86-4.94-10.66-4.94-9.46,0-16.87,7.42-16.87,17.72s7.42,17.72,16.87,17.72c4.8,0,8.33-1.91,10.66-4.94v4.09h7.34v-16.85h0ZM432.15,377.4c0-5.93,3.89-10.8,10.24-10.8s10.16,4.66,10.16,10.8-4.09,10.8-10.16,10.8c-6.38,0-10.25-4.88-10.25-10.8h.01ZM616.52,359.64c2.48-.03,4.94.43,7.24,1.36,2.15.85,4.1,2.12,5.75,3.73,1.63,1.6,2.92,3.52,3.81,5.63,1.83,4.52,1.83,9.58,0,14.1-.88,2.11-2.17,4.03-3.81,5.63-1.65,1.61-3.61,2.88-5.75,3.73-4.66,1.82-9.84,1.82-14.5,0-2.15-.85-4.09-2.12-5.74-3.73-1.63-1.6-2.91-3.52-3.78-5.63-1.83-4.52-1.83-9.58,0-14.1.88-2.11,2.17-4.01,3.78-5.63,1.65-1.61,3.59-2.88,5.74-3.73,2.31-.93,4.78-1.38,7.27-1.36ZM616.52,366.59c-1.44,0-2.86.25-4.19.79-1.26.51-2.39,1.26-3.34,2.22-.95.98-1.71,2.13-2.22,3.42-1.08,2.82-1.08,5.94,0,8.76.51,1.27,1.26,2.44,2.22,3.42.95.97,2.1,1.71,3.34,2.22,2.69,1.05,5.69,1.05,8.38,0,1.26-.51,2.4-1.26,3.37-2.22.97-.98,1.73-2.13,2.24-3.42,1.08-2.82,1.08-5.94,0-8.76-.51-1.27-1.27-2.44-2.24-3.42-.97-.95-2.11-1.71-3.37-2.22-1.33-.55-2.76-.81-4.19-.8h0ZM499.39,377.4c-.06-10.52-6.55-17.72-16.02-17.72s-16.79,7.2-16.79,17.72,7.2,17.72,17.29,17.72c5.12,0,9.74-1.27,13.83-4.72l-3.59-5.44c-2.78,2.24-6.24,3.48-9.81,3.53-4.72,0-9.03-2.18-10.1-8.26h25.06c.05-.93.14-1.84.14-2.83h-.01ZM474.27,374.44c.77-4.88,3.73-8.19,8.97-8.19,4.72,0,7.76,2.96,8.54,8.19h-17.5,0ZM530.31,369.15c-3.2-1.84-6.83-2.85-10.53-2.9-4.03,0-6.43,1.49-6.43,3.95,0,2.26,2.55,2.9,5.72,3.32l3.45.5c7.34,1.05,11.79,4.17,11.79,10.1,0,6.43-5.65,11.01-15.36,11.01-5.5,0-10.59-1.41-14.62-4.38l3.45-5.72c3.24,2.4,7.19,3.65,11.23,3.53,5,0,7.67-1.49,7.67-4.09,0-1.91-1.91-2.96-5.93-3.53l-3.45-.5c-7.54-1.05-11.65-4.45-11.65-9.96,0-6.71,5.5-10.8,14.05-10.8,5.36,0,10.24,1.21,13.76,3.53l-3.18,5.93h.03ZM565.59,367.25h-12v15.27c0,3.42,1.21,5.65,4.88,5.65,2.29-.08,4.52-.72,6.49-1.91l2.12,6.27c-2.76,1.71-5.93,2.62-9.18,2.62-8.69,0-11.71-4.66-11.71-12.5v-15.36h-6.82v-6.71h6.82v-10.24h7.42v10.24h11.99v6.66h0ZM590.99,359.69c1.78,0,3.54.32,5.22.93l-2.26,6.92c-1.46-.58-3.02-.88-4.59-.85-4.8,0-7.2,3.1-7.2,8.69v18.91h-7.34v-33.75h7.24v4.06c1.83-3.15,5.25-5.04,8.89-4.94l.04.04h0Z"/>
  <g>
    <rect class="st1" x="443.82" y="103.04" width="111.33" height="200.06"/>
    <path class="st0" d="M450.89,203.06c-.03-39.04,17.9-75.94,48.62-100.04-55.24-43.43-135.23-33.84-178.66,21.4-43.43,55.24-33.84,135.23,21.4,178.66,46.14,36.26,111.1,36.26,157.24,0-30.72-24.09-48.66-60.98-48.62-100.02h.01Z"/>
    <path class="st0" d="M705.33,203.06c0,70.26-56.97,127.23-127.23,127.23-28.51,0-56.2-9.58-78.62-27.19,55.24-43.44,64.81-123.43,21.38-178.68-6.25-7.95-13.43-15.13-21.38-21.38,55.25-43.43,135.23-33.84,178.64,21.41,17.62,22.42,27.19,50.11,27.19,78.61h.01Z"/>
  </g>
</svg>