<?xml version="1.0" encoding="UTF-8"?>
<svg id="Layer_1" xmlns="http://www.w3.org/2000/svg" version="1.1" viewBox="0 0 750 471">
  <!-- Generator: Adobe Illustrator 30.4.0, SVG Export Plug-In . SVG Version: 2.1.4 Build 226)  -->
  <defs>
    <style>
      .st0 {
        fill: #fff;
      }

      .st1 {
        fill: #d3d3d3;
      }
    </style>
  </defs>
  <path class="st0" d="M367.91,394.44v-21.22c0-8.14-4.95-13.44-13.08-13.44-4.27,0-8.84,1.42-12.02,5.97-2.48-3.89-5.97-5.97-11.31-5.97-4.03-.17-7.88,1.68-10.24,4.95v-4.27h-6.72v33.95h6.72v-19.43c0-5.97,3.53-8.84,8.49-8.84s7.78,3.19,7.78,8.84v19.45h6.72v-19.45c0-5.97,3.53-8.84,8.49-8.84s7.78,3.19,7.78,8.84v19.45h7.42-.01ZM478.24,360.85h-12.38v-10.24h-6.71v10.24h-7.07v5.97h7.07v15.95c0,7.78,2.82,12.38,11.31,12.38,3.21-.06,6.37-.92,9.18-2.48l-2.13-5.97c-1.9,1.19-4.12,1.8-6.37,1.77-3.53,0-5.3-2.13-5.3-5.66v-16.25h12.38v-5.7h.01ZM541.18,359.79c-3.72-.09-7.22,1.79-9.2,4.95v-4.27h-6.72v33.95h6.72v-19.06c0-5.66,2.82-9.2,7.43-9.2,1.56.06,3.1.3,4.59.71l2.13-6.37c-1.62-.41-3.29-.65-4.95-.71h0ZM446.06,363.32c-3.53-2.48-8.49-3.53-13.79-3.53-8.49,0-13.79,3.89-13.79,10.61,0,5.66,3.89,8.84,11.31,9.91l3.53.35c3.89.71,6.37,2.13,6.37,3.89,0,2.48-2.82,4.27-8.14,4.27-4.06.09-8.03-1.16-11.31-3.53l-3.53,5.3c4.95,3.53,10.96,4.27,14.51,4.27,9.91,0,15.21-4.59,15.21-10.96,0-5.97-4.27-8.84-11.67-9.91l-3.53-.35c-3.19-.35-5.97-1.42-5.97-3.53,0-2.48,2.82-4.27,6.72-4.27,4.27,0,8.49,1.77,10.61,2.82l3.47-5.34h0ZM548.61,377.47c0,10.24,6.72,17.68,17.68,17.68,4.95,0,8.49-1.06,12.02-3.89l-3.53-5.3c-2.5,2.03-5.61,3.15-8.84,3.19-5.97,0-10.61-4.59-10.61-11.31s4.58-11.27,10.61-11.27c3.22.04,6.33,1.16,8.84,3.19l3.53-5.3c-3.53-2.82-7.07-3.89-12.02-3.89-10.61-.71-17.68,6.72-17.68,16.97h0v-.04h0ZM501.23,359.79c-9.91,0-16.63,7.07-16.63,17.68s7.07,17.68,17.32,17.68c4.99.1,9.86-1.52,13.79-4.59l-3.53-4.95c-2.84,2.2-6.31,3.43-9.91,3.53-4.59,0-9.54-2.82-10.24-8.84h25.11v-2.82c0-10.61-6.37-17.68-15.92-17.68h0ZM500.88,366.16c4.95,0,8.49,3.19,8.84,8.49h-18.38c1.06-4.95,4.27-8.49,9.54-8.49h0ZM409.29,377.47v-16.97h-6.72v4.27c-2.48-3.19-5.97-4.95-10.96-4.95-9.54,0-16.63,7.43-16.63,17.68s7.07,17.68,16.63,17.68c4.95,0,8.49-1.77,10.96-4.95v4.27h6.72v-17.02h0ZM382.06,377.47c0-6.37,3.89-11.31,10.61-11.31,6.37,0,10.24,4.95,10.24,11.31,0,6.72-4.27,11.31-10.24,11.31-6.72.35-10.61-4.95-10.61-11.31h0ZM643.4,359.79c-3.72-.09-7.22,1.79-9.2,4.95v-4.27h-6.72v33.95h6.71v-19.06c0-5.66,2.82-9.2,7.43-9.2,1.56.06,3.1.3,4.59.71l2.13-6.37c-1.62-.41-3.29-.65-4.95-.71h.01ZM617.23,377.47v-16.97h-6.72v4.27c-2.48-3.19-5.97-4.95-10.96-4.95-9.54,0-16.63,7.43-16.63,17.68s7.07,17.68,16.63,17.68c4.95,0,8.49-1.77,10.96-4.95v4.27h6.72v-17.02h0ZM590,377.47c0-6.37,3.89-11.31,10.61-11.31,6.37,0,10.24,4.95,10.24,11.31,0,6.72-4.27,11.31-10.24,11.31-6.72.35-10.61-4.95-10.61-11.31ZM685.48,377.47v-30.41h-6.72v17.68c-2.48-3.19-5.97-4.95-10.96-4.95-9.54,0-16.63,7.43-16.63,17.68s7.07,17.68,16.63,17.68c4.95,0,8.49-1.77,10.96-4.95v4.27h6.72v-17h0ZM658.26,377.47c0-6.37,3.89-11.31,10.61-11.31,6.37,0,10.24,4.95,10.24,11.31,0,6.72-4.27,11.31-10.24,11.31-6.73.36-10.63-4.94-10.63-11.31h.01Z"/>
  <g>
    <rect class="st1" x="438.28" y="103.04" width="122.71" height="200.16"/>
    <path class="st0" d="M450.67,203.13c0-39.01,17.86-75.87,48.44-100.07-55.28-43.45-135.3-33.89-178.77,21.39-43.45,55.28-33.89,135.3,21.39,178.77,46.18,36.31,111.2,36.31,157.37,0-30.59-24.2-48.44-61.08-48.44-100.07h.01Z"/>
    <path class="st0" d="M705.29,203.13c.05,70.23-56.84,127.23-127.09,127.28-28.53.02-56.25-9.56-78.68-27.19,55.28-43.7,64.65-123.95,20.94-179.22-6.15-7.77-13.17-14.8-20.94-20.94,55.23-43.4,135.18-33.84,178.58,21.39,17.63,22.44,27.22,50.15,27.19,78.68Z"/>
  </g>
</svg>