<?xml version="1.0" encoding="UTF-8"?>
<svg id="Layer_1" xmlns="http://www.w3.org/2000/svg" version="1.1" xmlns:xlink="http://www.w3.org/1999/xlink" viewBox="0 0 750 471">
  <!-- Generator: Adobe Illustrator 30.4.0, SVG Export Plug-In . SVG Version: 2.1.4 Build 226)  -->
  <defs>
    <style>
      .st0, .st1 {
        fill: #fff;
      }

      .st2 {
        mask: url(#mask);
      }

      .st1 {
        stroke: #000;
      }
    </style>
    <mask id="mask" x="273.11" y="81.79" width="490.12" height="307.8" maskUnits="userSpaceOnUse">
      <g id="union">
        <rect class="st0" x="273.11" y="81.79" width="490.12" height="307.8"/>
        <path d="M577.58,294.84h8.79l2.5-8.54h-8.72l-2.57,8.54h0ZM584.61,271.35h0l-3.04,10.11s3.31-1.71,5.14-2.25c1.83-.41,4.53-.75,4.53-.75l2.1-7.03h-8.79l.07-.07ZM589.01,256.87h0l-2.91,9.7s3.25-1.5,5.07-1.98c1.83-.48,4.53-.61,4.53-.61l2.1-7.03h-8.72l-.07-.07ZM608.42,256.87h0l-11.36,37.9h3.04l-2.37,7.85h-3.04l-.74,2.39h-10.82l.74-2.39h-21.91l2.16-7.24h2.23l11.5-38.52,2.3-7.79h11.02l-1.15,3.89s2.91-2.12,5.75-2.87c2.77-.75,18.73-1.02,18.73-1.02l-2.37,7.72h-3.79l.07.07Z"/>
        <path d="M612.93,249.09h11.77l.14,4.44c-.07.75.54,1.09,1.96,1.09h2.37l-2.16,7.31h-6.36c-5.48.41-7.57-1.98-7.44-4.64l-.2-8.13-.07-.07ZM614.38,283.85h-11.23l1.89-6.49h12.85l1.83-5.94h-12.65l2.16-7.31h35.17l-2.16,7.31h-11.83l-1.83,5.94h11.83l-1.96,6.49h-12.78l-2.3,2.73h5.21l1.28,8.19c.14.82.14,1.37.41,1.71.27.27,1.83.41,2.71.41h1.56l-2.43,7.99h-3.99c-.61,0-1.56-.07-2.84-.07-1.22-.14-2.03-.82-2.84-1.23-.74-.34-1.83-1.23-2.1-2.8l-1.22-8.19-5.82,8.06c-1.83,2.53-4.33,4.51-8.59,4.51h-8.12l2.16-7.1h3.11c.88,0,1.69-.34,2.3-.68.61-.27,1.15-.55,1.69-1.43l8.52-12.09h0ZM491.58,266.08h29.69l-2.16,7.17h-11.83l-1.83,6.08h12.17l-2.23,7.38h-12.11l-2.98,9.9c-.34,1.09,2.91,1.23,4.06,1.23l6.09-.82-2.43,8.19h-13.66c-1.08,0-1.89-.14-3.11-.41-1.15-.27-1.69-.82-2.16-1.57-.47-.82-1.28-1.43-.74-3.21l3.92-13.11h-6.76l2.23-7.51h6.76l1.83-6.08h-6.76l2.16-7.17-.14-.07ZM512.1,253.12h12.17l-2.23,7.44h-16.64l-1.83,1.57c-.81.75-1.01.48-2.03,1.02-.95.48-2.91,1.43-5.48,1.43h-5.34l2.16-7.17h1.62c1.35,0,2.3-.14,2.77-.41.54-.34,1.15-1.09,1.76-2.32l3.04-5.6h12.11l-2.1,4.1v-.07ZM535.04,265.41s3.31-3.07,8.99-4.03c1.28-.27,9.4-.14,9.4-.14l1.22-4.1h-17.11l-2.5,8.33v-.07ZM551.13,268.55h-16.97l-1.01,3.48h14.74c1.76-.2,2.1.07,2.23-.07l1.08-3.41h-.07ZM529.09,249.16h10.35l-1.49,5.26s3.25-2.66,5.55-3.62c2.3-.82,7.44-1.64,7.44-1.64l16.77-.07-5.75,19.26c-.95,3.28-2.1,5.39-2.77,6.42-.61.96-1.35,1.84-2.84,2.66-1.42.75-2.71,1.23-3.92,1.3-1.08.07-2.84.14-5.14.14h-16.16l-4.53,15.23c-.41,1.5-.61,2.25-.34,2.66.2.34.81.75,1.56.75l7.1-.68-2.43,8.33h-7.98c-2.57,0-4.4-.07-5.68-.14-1.22-.14-2.5,0-3.38-.68-.74-.68-1.89-1.57-1.83-2.46.07-.82.41-2.19.95-4.1l14.54-48.62h0Z"/>
        <path d="M559.24,279.8l-.95,4.64c-.41,1.43-.74,2.53-1.83,3.48-1.15.96-2.43,1.98-5.55,1.98l-5.75.27-.07,5.19c-.07,1.43.34,1.3.54,1.57.27.27.47.34.74.48l1.83-.14,5.48-.27-2.3,7.65h-6.29c-4.4,0-7.71-.14-8.72-.96-1.08-.68-1.22-1.5-1.22-3l.41-20.35h10.08l-.14,4.17h2.43c.81,0,1.42-.07,1.76-.27.34-.2.54-.55.68-1.02l1.01-3.28h7.91l-.07-.14ZM415.88,177.86c-.34,1.64-6.83,31.75-6.83,31.75-1.42,6.08-2.43,10.45-5.82,13.25-1.96,1.64-4.26,2.39-6.9,2.39-4.26,0-6.69-2.12-7.1-6.15l-.07-1.37s1.28-8.13,1.28-8.19c0,0,6.76-27.45,7.98-31.07.07-.2.07-.34.07-.41-13.19.14-15.55,0-15.69-.2-.07.27-.41,1.98-.41,1.98l-6.9,30.94-.61,2.6-1.15,8.6c0,2.53.47,4.64,1.49,6.35,3.18,5.6,12.17,6.42,17.24,6.42,6.56,0,12.71-1.43,16.84-3.96,7.24-4.3,9.13-11.06,10.75-17l.81-3.07s6.97-28.48,8.18-32.16c.07-.2.07-.34.14-.41-9.6.07-12.38,0-13.32-.2v-.07ZM454.46,234.46c-4.67-.07-6.36-.07-11.83.2l-.2-.41c.47-2.12,1.01-4.17,1.42-6.28l.68-2.87c1.01-4.44,1.96-9.7,2.1-11.27.14-.96.41-3.35-2.3-3.35-1.15,0-2.3.55-3.52,1.09-.68,2.39-1.96,9.08-2.64,12.09-1.35,6.42-1.42,7.17-2.03,10.31l-.41.41c-4.8-.07-6.49-.07-12.04.2l-.27-.48c.95-3.82,1.83-7.65,2.71-11.47,2.3-10.31,2.91-14.27,3.52-19.53l.47-.27c5.41-.75,6.7-.96,12.58-2.12l.47.55-.88,3.28c1.01-.61,1.96-1.23,2.98-1.71,2.77-1.37,5.82-1.78,7.51-1.78,2.57,0,5.41.75,6.56,3.76,1.08,2.66.41,5.94-1.08,12.43l-.74,3.28c-1.49,7.24-1.76,8.54-2.57,13.45l-.54.41.07.07ZM473.45,234.48c-2.84,0-4.67-.07-6.42,0-1.76,0-3.45.14-6.09.2l-.14-.2-.14-.27c.74-2.73,1.08-3.69,1.49-4.64.34-.96.68-1.91,1.35-4.71.81-3.62,1.35-6.15,1.69-8.4.41-2.12.61-3.96.88-6.08l.2-.14.2-.2c2.84-.41,4.6-.68,6.42-.96s3.72-.61,6.63-1.16l.14.27.07.27c-.54,2.25-1.08,4.51-1.62,6.76-.54,2.25-1.08,4.51-1.56,6.76-1.01,4.78-1.49,6.56-1.69,7.85-.27,1.23-.34,1.84-.74,4.3l-.27.2-.27.2-.14-.07ZM503.47,217.7c-.2,1.23-1.28,5.8-2.71,7.72-1.01,1.43-2.16,2.32-3.52,2.32-.41,0-2.71,0-2.77-3.48,0-1.71.34-3.48.74-5.39,1.22-5.53,2.71-10.11,6.42-10.11,2.91,0,3.11,3.41,1.83,8.95h0ZM515.71,218.25h0c1.62-7.24.34-10.65-1.22-12.7-2.43-3.14-6.76-4.17-11.23-4.17-2.71,0-9.06.27-14.07,4.92-3.58,3.35-5.27,7.92-6.22,12.29-1.01,4.44-2.16,12.43,5.14,15.43,2.23.96,5.48,1.23,7.57,1.23,5.34,0,10.82-1.5,14.95-5.87,3.18-3.55,4.6-8.88,5.14-11.13h-.07ZM629.7,235.29c-5.68-.07-7.3-.07-12.51.2l-.34-.41c1.42-5.39,2.84-10.86,4.13-16.32,1.62-7.1,2.03-10.11,2.57-14.27l.41-.34c5.61-.82,7.17-1.02,13.05-2.12l.14.48c-1.08,4.51-2.1,8.95-3.18,13.38-2.16,9.36-2.91,14.14-3.72,19.05l-.54.41v-.07Z"/>
        <path d="M621.53,218.62c-.27,1.16-1.35,5.8-2.77,7.72-.95,1.37-3.25,2.25-4.53,2.25-.41,0-2.64,0-2.77-3.41,0-1.71.34-3.48.74-5.39,1.22-5.39,2.71-9.97,6.42-9.97,2.91,0,4.19,3.35,2.91,8.88v-.07ZM632.69,219.16h0c1.62-7.24-5-.61-6.02-3-1.62-3.76-.61-11.27-7.1-13.79-2.5-1.02-8.39.27-13.39,4.92-3.52,3.28-5.27,7.85-6.22,12.22-1.01,4.37-2.16,12.43,5.07,15.23,2.3,1.02,4.4,1.3,6.49,1.16,7.3-.41,12.85-11.54,16.97-15.91,3.18-3.48,3.72,1.3,4.19-.82h0ZM547.77,234.46c-4.67-.07-6.29-.07-11.77.2l-.2-.41c.47-2.12,1.01-4.17,1.49-6.28l.61-2.87c1.01-4.44,2.03-9.7,2.1-11.27.14-.96.41-3.35-2.23-3.35-1.15,0-2.37.55-3.52,1.09-.61,2.39-1.96,9.08-2.64,12.09-1.28,6.42-1.42,7.17-2.03,10.31l-.41.41c-4.8-.07-6.49-.07-12.04.2l-.27-.48c.95-3.82,1.83-7.65,2.71-11.47,2.3-10.31,2.84-14.27,3.52-19.53l.41-.27c5.41-.75,6.76-.96,12.58-2.12l.47.55-.81,3.28c.95-.61,1.96-1.23,2.91-1.71,2.77-1.37,5.82-1.78,7.51-1.78,2.57,0,5.34.75,6.56,3.76,1.08,2.66.34,5.94-1.15,12.43l-.74,3.28c-1.56,7.24-1.76,8.54-2.57,13.45l-.54.41.07.07ZM588.29,177.92l-3.92.07c-10.14.14-14.2.07-15.82-.14-.14.75-.41,2.05-.41,2.05,0,0-3.65,16.94-3.65,17,0,0-8.66,36.06-9.06,37.76,8.86-.14,12.44-.14,14,.07.34-1.71,2.37-11.75,2.43-11.75,0,0,1.76-7.38,1.83-7.65,0,0,.54-.75,1.08-1.09h.81c7.64,0,16.23,0,22.99-4.99,4.6-3.41,7.71-8.54,9.13-14.68.34-1.5.61-3.28.61-5.12,0-2.39-.47-4.71-1.83-6.56-3.45-4.85-10.28-4.92-18.19-4.99h0ZM593.36,195.61h0c-.81,3.76-3.25,6.97-6.36,8.47-2.57,1.3-5.68,1.43-8.93,1.43h-2.1l.14-.82s3.85-16.94,3.85-16.87l.14-.89.07-.68,1.56.14s7.98.68,8.12.68c3.11,1.23,4.46,4.37,3.52,8.54h0ZM676.49,201.27l-.47-.55c-5.75,1.16-6.83,1.37-12.11,2.12l-.41.41c0,.07-.07.14-.07.27v-.07c-3.92,9.22-3.85,7.24-7.03,14.48,0-.34,0-.55-.07-.89l-.81-15.71-.47-.55c-6.09,1.16-6.22,1.37-11.77,2.12l-.41.41c-.07.2-.07.41-.07.61l.07.07c.68,3.62.54,2.8,1.22,8.47.34,2.8.74,5.6,1.08,8.33.54,4.64.88,6.9,1.56,13.93-3.79,6.28-4.67,8.67-8.32,14.2l.2.55c5.48-.2,6.7-.2,10.75-.2l.88-1.02c3.04-6.62,26.31-46.92,26.31-46.92l-.07-.07ZM478.66,205.8c3.11-2.19,3.52-5.19.88-6.76-2.64-1.57-7.3-1.09-10.41,1.09-3.11,2.12-3.45,5.12-.81,6.76,2.57,1.5,7.24,1.09,10.35-1.09h0Z"/>
        <path d="M649.35,249.16l-4.53,7.85c-1.42,2.66-4.13,4.71-8.32,4.71l-7.24-.14,2.1-7.1h1.42c.74,0,1.28-.07,1.69-.27.41-.14.61-.41.95-.82l2.71-4.3h11.29l-.07.07Z"/>
      </g>
    </mask>
  </defs>
  <g class="st2">
    <g>
      <path class="st1" d="M404.99,117.73h93.05c12.98,0,21.1,10.72,18.06,23.83l-43.35,187.87c-3.04,13.11-16.1,23.83-29.08,23.83h-93.05c-12.98,0-21.1-10.72-18.06-23.83l43.35-187.87c3.04-13.18,16.03-23.83,29.01-23.83h.07Z"/>
      <path class="st1" d="M489.91,117.73h107.05c12.98,0,7.1,10.72,4.06,23.83l-43.35,187.87c-3.04,13.11-2.1,23.83-15.08,23.83h-107.05c-13.05,0-21.1-10.72-17.99-23.83l43.35-187.87c3.04-13.18,16.03-23.83,29.08-23.83h-.07Z"/>
      <path class="st1" d="M593.2,117.73h93.05c12.98,0,21.1,10.72,18.06,23.83l-43.35,187.87c-3.04,13.11-16.1,23.83-29.08,23.83h-93.05c-13.05,0-21.1-10.72-18.06-23.83l43.35-187.87c3.04-13.18,16.03-23.83,29.01-23.83h.07Z"/>
    </g>
  </g>
</svg>